<svg xmlns="http://www.w3.org/2000/svg" viewBox="0 0 1024 1024" focusable="false" role="img" aria-hidden="true" data-icon="eiCalendarBold" data-prefix="ei" data-unicode="" class="dj4zf0-0 issbTU eb-icon" rotate="0"><path fill="#151618" d="M153.6 0h716.8C955.231 0 1024 68.769 1024 153.6v716.8c0 84.831-68.769 153.6-153.6 153.6H153.6C68.769 1024 0 955.231 0 870.4V153.6C0 68.769 68.769 0 153.6 0zm0 102.4c-28.277 0-51.2 22.923-51.2 51.2v716.8c0 28.277 22.923 51.2 51.2 51.2h716.8c28.277 0 51.2-22.923 51.2-51.2V153.6c0-28.277-22.923-51.2-51.2-51.2H153.6zm200.192 484.895h21.952c6.272 0 12.395-.448 18.368-1.344s11.424-2.613 16.352-5.152c4.928-2.539 8.885-6.123 11.872-10.752s4.48-10.677 4.48-18.144c0-9.557-3.808-17.472-11.424-23.744s-16.949-9.408-28-9.408c-10.453 0-19.115 2.837-25.984 8.512s-11.349 12.693-13.44 21.056l-73.92-15.232c3.584-13.739 8.96-25.461 16.128-35.168s15.68-17.547 25.536-23.52c9.856-5.973 20.832-10.379 32.928-13.216s24.864-4.256 38.304-4.256c14.037 0 27.552 1.717 40.544 5.152s24.416 8.811 34.272 16.128c9.856 7.317 17.696 16.501 23.52 27.552s8.736 24.192 8.736 39.424c0 17.621-4.629 32.704-13.888 45.248s-22.699 20.608-40.32 24.192v1.344c9.557 1.195 17.995 4.032 25.312 8.512s13.515 10.005 18.592 16.576c5.077 6.571 8.96 14.037 11.648 22.4s4.032 17.173 4.032 26.432c0 15.829-3.061 29.717-9.184 41.664s-14.336 21.877-24.64 29.792c-10.304 7.915-22.4 13.813-36.288 17.696s-28.597 5.824-44.128 5.824c-28.373 0-52.789-6.571-73.248-19.712s-33.973-33.899-40.544-62.272l70.784-16.576c2.389 11.349 7.243 20.309 14.56 26.88s18.144 9.856 32.48 9.856c14.635 0 25.461-3.808 32.48-11.424s10.528-17.397 10.528-29.344c0-8.96-1.867-15.904-5.6-20.832s-8.587-8.587-14.56-10.976c-5.973-2.389-12.693-3.808-20.16-4.256s-14.933-.672-22.4-.672h-15.68v-58.24zm301.236-52.066-63.616 56-38.08-43.904 103.488-87.36h62.72v317.184h-64.512v-241.92zM256 230.4h512c28.277 0 51.2 22.923 51.2 51.2s-22.923 51.2-51.2 51.2H256c-28.277 0-51.2-22.923-51.2-51.2s22.923-51.2 51.2-51.2z"></path></svg>