<svg xmlns="http://www.w3.org/2000/svg" viewBox="0 0 1024 1024" focusable="false" role="img" aria-hidden="true" data-icon="eiComputer" data-prefix="ei" data-unicode="" class="dj4zf0-0 issbTU eb-icon" rotate="0"><path fill="#151618" d="M872.011 102.4c56.554 0 102.4 45.846 102.4 102.4l-.024 475.546 48.761 162.469a95.989 95.989 0 0 1 4.049 27.585c0 50.495-38.985 91.884-88.498 95.711l-7.502.289H96.026a95.989 95.989 0 0 1-27.585-4.049C20.197 947.878-8.223 898.854 2.117 850.447l1.958-7.633 48.713-162.469.024-475.546c0-56.554 45.846-102.4 102.4-102.4h716.8zm19.739 614.4H135.424l-47.823 160h852.13l-47.981-160zM884.811 192h-742.4v435.2h742.4V192z"></path></svg>