<svg xmlns="http://www.w3.org/2000/svg" viewBox="0 0 1024 1024" focusable="false" role="img" aria-hidden="true" data-icon="eiLevelBold" data-prefix="ei" data-unicode="" class="dj4zf0-0 issbTU eb-icon" rotate="0"><path fill="#151618" d="M300.533 408.892c28.277 0 51.2 22.923 51.2 51.2v307.2c0 28.277-22.923 51.2-51.2 51.2s-51.2-22.923-51.2-51.2v-307.2c0-28.277 22.923-51.2 51.2-51.2zm256-153.6c28.277 0 51.2 22.923 51.2 51.2v460.8c0 28.277-22.923 51.2-51.2 51.2s-51.2-22.923-51.2-51.2v-460.8c0-28.277 22.923-51.2 51.2-51.2zm256-153.6c28.277 0 51.2 22.923 51.2 51.2v614.4c0 28.277-22.923 51.2-51.2 51.2s-51.2-22.923-51.2-51.2v-614.4c0-28.277 22.923-51.2 51.2-51.2zM972.8 921.6c28.277 0 51.2 22.923 51.2 51.2s-22.923 51.2-51.2 51.2H149.243C67.326 1024 0 959.667 0 879.115V92.16c0-28.277 22.923-51.2 51.2-51.2s51.2 22.923 51.2 51.2v786.955c0 22.93 20.465 42.485 46.843 42.485H972.8z"></path></svg>