<svg xmlns="http://www.w3.org/2000/svg" viewBox="0 0 1024 1024" focusable="false" role="img" aria-hidden="true" data-icon="eiSearchBold" data-prefix="ei" data-unicode="" class="dj4zf0-0 gPnFKZ eb-icon" rotate="0"><path fill="currentColor" d="M433.004 753.004c176.731 0 320-143.269 320-320s-143.269-320-320-320-320 143.269-320 320 143.269 320 320 320zm332.697-59.711L998.4 925.992c19.995 19.995 19.995 52.413 0 72.408s-52.413 19.995-72.408 0L693.293 765.701c-71.732 56.199-162.098 89.703-260.289 89.703-233.285 0-422.4-189.115-422.4-422.4s189.115-422.4 422.4-422.4c233.285 0 422.4 189.115 422.4 422.4 0 98.191-33.504 188.557-89.703 260.289z"></path></svg>